# xmcd CD database file
#
# Track frame offsets:
#	150
#	14605
#	27140
#	41700
#	56010
#	67032
#	79542
#	92147
#	104572
#	117987
#	131817
#	147025
#	161697
#	170825
#	183612
#	197120
#	210155
#	224627
#	239310
#	253460
#	264582
#	275832
#	290470
#	305940
#	319122
#	331882
#
# Disc length: 4610 seconds
#
# Revision: 2
# Processed by: cddbd v1.5PL3 Copyright (c) Steve Scherf et al.
# Submitted via: CDex 1.51
#
DISCID=a212001a
DTITLE=Charlie Christian - The Genius Of The Electric Guitar - CD1
DYEAR=2002
DGENRE=Jazz
TTITLE0=Flying Home [B. Goodman-L. Hampton]
TTITLE1=Rose Room [A. Hickman-H. Williams]
TTITLE2=Stardust [H. Carmichael]
TTITLE3=Memories Of You [A. Razaf-E. Blake]
TTITLE4=Soft Winds [F. Henderson]
TTITLE5=Seven Come Eleven [B. Goodman-C. Christian]
TTITLE6=Shivers [C. Christian-L. Hampton]
TTITLE7=AC/DC Current [C. Christian-L. Hampton-B. Goodman]
TTITLE8=I'm Confessin' (That I Love You) [A.J. Neiburg-D. Dougherty-E. Reynolds]
TTITLE9=Till Tom Special [B. Goodman-L. Hampton]
TTITLE10=Gone With What Wind [C. Basie-B. Goodman]
TTITLE11=The Sheik Of Araby [H. Smith-F. Wheeler-T. Snyder] [second take]
TTITLE12=Untitled Tune [Unknown]
TTITLE13=Poor Butterfly [J. Golden-R. Hubbell]
TTITLE14=I Surrender, Dear [G. Clifford-H. Barris] [second take]
TTITLE15=Boy Meets Goy (Grand Slam) [B. Goodman] [second take]
TTITLE16=These Foolish Things [H. Marvell-J. Strachey]
TTITLE17=Flying Home [B. Goodman-L. Hampton] [alternate take]
TTITLE18=Memories Of You [A. Razaf-E. Blake] [alternate take]
TTITLE19=Soft Winds [F. Henderson] [alternate take]
TTITLE20=Shivers [C. Christian-L. Hampton] [alternate take]
TTITLE21=Gone With What Wind [C. Basie-B. Goodman] [alternate take]
TTITLE22=The Sheik Of Araby [H. Smith-F. Wheeler-T. Snyder] [alternate take] [first take]
TTITLE23=I Surrender, Dear [G. Clifford-H. Barris] [alternate take] [first take]
TTITLE24=Boy Meets Goy (Grand Slam) [B. Goodman] [alternate take] [first take]
TTITLE25=These Foolish Things [H. Marvell-J. Strachey] [alternate take]
EXTD=YEAR: 2002
EXTT0=
EXTT1=
EXTT2=
EXTT3=
EXTT4=
EXTT5=
EXTT6=
EXTT7=
EXTT8=
EXTT9=
EXTT10=
EXTT11=
EXTT12=
EXTT13=
EXTT14=
EXTT15=
EXTT16=
EXTT17=
EXTT18=
EXTT19=
EXTT20=
EXTT21=
EXTT22=
EXTT23=
EXTT24=
EXTT25=
PLAYORDER=
